<?xml version="1.0" standalone="yes"?>
<svg xmlns="http://www.w3.org/2000/svg" width="1000" height="1000">
<path style="fill:#f9bd14; stroke:none;" d="M0 0L0 1.5L0 10L0 12L0 13L0 15L0 23L0 27L0 33L0 34L0 42L0 43L0 45L0 50L0 54L0 58L0 64L0 72L0 76L0 77L0 82L0 86L0 91L0 92L0 96L0 100L0 101L0 104L0 106L0 108L0 110L0 113L0 121L0 126L0 128L0 132L0 135L0 139L0 143L0 147L0 149L0 153L0 154L0 155L0 156L0 160L0 163L0 167L4 167L9 167L16 167L38 167L48 167L93 167L104 167L167 167L167 165.5L167 163L167 159L167 153L167 149L167 144L167 142L167 137L167 136L167 135L167 134L167 133L167 129L167 127L167 123L167 122L167 118L167 117L167 116L167 112L167 110L167 107L167 99L167 96L167 92L167 91L167 85L167 82L167 63L167 62L167 61L167 45L167 41L167 39L167 35L167 32L167 28L167 27L167 19L167 13L167 12L167 8L167 0L130 0L129 0L128 0L88 0L84 0L79 0L75 0L70 0L67 0L60 0L46 0L31 0L28 0L23 0L21 0L11 0L0 0z"/>
<path style="fill:#ad83ea; stroke:none;" d="M167 0L167 3.05554L167 6L167 12L167 13L167 21L167 25L167 26L167 27L167 29L167 37L167 39L167 40L167 41L167 43L167 51L167 55L167 58L167 62L167 63L167 69L167 73L167 74L167 82L167 85L167 87L167 95L167 99L167 107L167 108L167 110L167 113L167 118L167 119L167 122L167 126L167 127L167 129L167 135L167 138L167 146L167 148L167 150L167 154L167 159L167 161L167 166L173 166L333 166L333 150L333 142L333 137L333 130L333 128L333 127L333 122L333 120L333 112L333 108L333 102L333 97L333 95L333 94L333 89L333 88L333 78L333 74L333 73L333 71L333 63L333 57L333 56L333 40L333 37L333 33L333 29L333 24L333 22L333 18L333 14L333 13L333 5L333 0L327 0L167 0z"/>
<path style="fill:#7f91ed; stroke:none;" d="M333 0L333 3.05554L333 8L333 10L333 12L333 16L333 21L333 25L333 26L333 27L333 29L333 61L333 66L333 69L333 73L333 78L333 81L333 85L333 86L333 91L333 93L333 97L333 99L333 102L333 105L333 108L333 112L333 116L333 120L333 122L333 124L333 126L333 127L333 129L333 132L333 140L333 144L333 148L333 149L333 151L333 156L333 157L333 161L333 166L333.722 165.222L333.75 164.694L333.944 163.889L333.972 162.972L334 161L334 159L334 155L334 150L334 143L334 140L334 135L334 134L334 130L334 129L334 127L334 126L334 122L334 118L334 117L334 116L334 112L334 110L334 107L334 99L334 96L334 91L334 90L334 84L334 83L334 78L334 72L334 68L334 64L334 63L334 59L334 58L334 53L334 52L334 47L334 45L334 41L334 39L334 35L334 32L334 28L334 20L334 12L334 10L334 8L334 7L334 5L333.972 3.02777L333.944 2.11108L333.75 1.30554L333.722 0.777771L333 0z"/>
<path style="fill:#63d5f1; stroke:none;" d="M334 0L334 6L334 10L334 12L334 13L334 15L334 21L334 22L334 26L334 32L334 34L334 37L334 39L334 71L334 76L334 78L334 82L334 83L334 88L334 90L334 92L334 95L334 99L334 100L334 104L334 109L334 110L334 118L334 119L334 123L334 124L334 125L334 129L334 130L334 131L334 135L334 139L334 143L334 147L334 149L334 153L334 154L334 155L334 156L334 160L334 163L334 167L342 167L349 167L371 167L381 167L426 167L437 167L500 167L500 162L500 161L500 129L500 125L500 121L500 117L500 116L500 115L500 110L500 107L500 105L500 104L500 88L500 87L500 55L500 53L500 49L500 45L500 41L500 39L500 35L500 34L500 30L500 29L500 26L500 21L500 17L500 16L500 14L500 11L500 8L500 0L494 0L334 0z"/>
<path style="fill:#87ce8b; stroke:none;" d="M500 0L500 3.05554L500 11L500 19L500 20L500 23L500 25L500 26L500 27L500 29L500 32L500 96L500 97L500 101L500 105L500 107L500 109L500 113L500 114L500 116L500 120L500 126L500 130L500 132L500 133L500 137L500 141L500 149L500 153L500 154L500 156L500 157L500 161L500 166L500.722 165.222L500.75 164.694L500.944 163.889L500.972 162.972L501 161L501 159L501 155L501 150L501 143L501 140L501 135L501 134L501 130L501 126L501 122L501 120L501 116L501 114L501 109L501 107L501 99L501 95L501 93L501 92L501 90L501 89L501 88L501 84L501 83L501 79L501 78L501 74L501 66L501 62L501 61L501 59L501 56L501 53L501 49L501 39L501 35L501 34L501 30L501 29L501 21L501 17L501 15L501 14L501 12L501 10L501 8L501 7L501 5L500.972 3.02777L500.944 2.11108L500.75 1.30554L500.722 0.777771L500 0z"/>
<path style="fill:#bdbdbd; stroke:none;" d="M501 0L501 1.5L501 4L501 5L501 8L501 10L501 12L501 15L501 21L501 22L501 24L501 25L501 26L501 31L501 39L501 55L501 59L501 63L501 69L501 73L501 74L501 79L501 83L501 87L501 93L501 97L501 98L501 100L501 101L501 103L501 105L501 113L501 121L501 125L501 129L501 135L501 140L501 143L501 145L501 146L501 147L501 150L501 156L501 159L501 160L501 161L500.917 163L500.778 163.944L500.583 164.944L500 167L501.667 166.806L503.222 166.861L504.083 166.944L506 167L507 167L510 167L518 167L528 167L529 167L555 167L557 167L562 167L570 167L588 167L589 167L593 167L595 167L609 167L613 167L618 167L628 167L633 167L637 167L647 167L648 167L649 167L653 167L657 167L667 167L667 164.944L667 162L667 161L667 159L667 152L667 144L667 143L667 140L667 136L667 131L667 127L667 126L667 122L667 118L667 117L667 101L667 97L667 96L667 92L667 87L667 82L667 78L667 76L667 74L667 71L667 63L667 61L667 59L667 56L667 53L667 49L667 48L667 46L667 38L667 36L667 35L667 33L667 29L667 27L667 26L667 25L667 17L667 9L667 3.05554L667 0L661 0L660 0L659 0L653 0L652 0L648 0L643 0L642 0L634 0L633 0L630 0L626 0L616 0L602 0L597 0L596 0L592 0L587 0L585 0L583 0L582 0L578 0L574 0L569 0L564 0L562 0L557 0L549 0L527 0L519 0L518 0L511 0L501 0z"/>
<path style="fill:#dadc55; stroke:none;" d="M667 0L667 2.05554L667 3.05554L667 7L667 15L667 16L667 18L667 19L667 27L667 33L667 37L667 38L667 46L667 54L667 60L667 63L667 66L667 72L667 104L667 109L667 117L667 120L667 126L667 134L667 166L668 167L676 167L680 167L682 167L683 167L689 167L693 167L699 167L703 167L705 167L713 167L718 167L721 167L727 167L729 167L737 167L740 167L744 167L746 167L749 167L757 167L761 167L762 167L765 167L768 167L772 167L773 167L784 167L786 167L789 167L797 167L798 167L803 167L808 167L816 167L824 167L828 167L829 167L834 167L834 162L834 160L834 155L834 150L834 146L834 143L834 141L834 140L834 139L834 133L834 132L834 131L834 128L834 126L834 122L834 118L834 116L834 115L834 111L834 105L834 103L834 101L834 100L834 92L834 91L834 85L834 82L834 76L834 72L834 68L834 66L834 64L834 0L830 0L825 0L823 0L822 0L816 0L815 0L813 0L808 0L804 0L798 0L794 0L790 0L785 0L784 0L770 0L766 0L761 0L755 0L753 0L745 0L744 0L740 0L739 0L735 0L730 0L723 0L715 0L711 0L705 0L700 0L692 0L690 0L689 0L687 0L679 0L674 0L667 0z"/>
<path style="fill:#e888a8; stroke:none;" d="M834 0L834 3.05554L834 5L834 8L834 10L834 11L834 27L834 29L834 33L834 34L834 39L834 43L834 49L834 53L834 61L834 66L834 74L834 78L834 79L834 83L834 91L834 93L834 94L834 98L834 99L834 102L834 104L834 107L834 108L834 109L834 111L834 115L834 123L834 126L834 129L834 135L834 141L834 145L834 152L834 156L834 158L834 166L839 166L840 166L845 166L846 166L854 166L870 166L875 166L876 166L880 166L888 166L890 166L894 166L897 166L901 166L909 166L913 166L921 166L924 166L925 166L926 166L930 166L932 166L933 166L934 166L935 166L937 166L943 166L945 166L948 166L950 166L955 166L963 166L964 166L970 166L974 166L979 166L983 166L984 166L986 166L989 166L990 166L994 166L1000 166L1000 150L1000 142L1000 137L1000 130L1000 128L1000 127L1000 121L1000 118L1000 114L1000 113L1000 112L1000 80L1000 72L1000 70L1000 68L1000 67L1000 60L1000 56L1000 46L1000 42L1000 36L1000 35L1000 31L1000 28L1000 23L1000 21L1000 17L1000 16L1000 14L1000 11L1000 8L1000 0L996.944 0L996 0L992 0L988 0L987 0L986 0L982 0L979 0L971 0L968 0L904 0L903 0L899 0L895 0L893 0L890 0L888 0L887 0L883 0L879 0L877 0L873 0L871 0L868 0L864 0L862 0L861 0L857 0L855 0L847 0L846 0L842 0L834 0z"/>
<path style="fill:#bdbdbd; stroke:none;" d="M167 166L167.778 166.722L168.306 166.75L169.111 166.944L170.028 166.972L171 167L173 167L174 167L176 167L181 167L213 167L258 167L259 167L270 167L332 167L331.222 166.278L330.694 166.25L329.889 166.056L328.972 166.028L328 166L326 166L325 166L323 166L318 166L286 166L167 166z"/>
<path style="fill:#d387e4; stroke:none;" d="M332 166L333 167L332 166z"/>
<path style="fill:#bdbdbd; stroke:none;" d="M333 166L334 167L333 166z"/>
<path style="fill:#b4a390; stroke:none;" d="M834 166L835 167L834 166z"/>
<path style="fill:#d387e4; stroke:none;" d="M835 166L835.778 166.722L836.306 166.75L837.111 166.944L838.028 166.972L839 167L841 167L842 167L844 167L849 167L881 167L886 167L894 167L926 167L927 167L931 167L933 167L934 167L938 167L939 167L941 167L944 167L960 167L963 167L967 167L975 167L976 167L980 167L983 167L985 167L986 167L990 167L995 167L1000 167L999.222 166.278L998.694 166.25L997.889 166.056L996.972 166.028L996 166L994 166L993 166L991 166L987 166L986 166L954 166L953 166L951 166L949 166L948 166L947 166L943 166L937 166L936 166L931 166L923 166L920 166L914 166L911 166L910 166L902 166L886 166L881 166L877 166L876 166L875 166L872 166L868 166L866 166L862 166L856 166L852 166L851 166L849 166L848 166L843 166L835 166z"/>
<path style="fill:#80db72; stroke:none;" d="M0 167L0.777778 167.722L1.30556 167.75L2.11111 167.944L3.02778 167.972L4 168L6 168L7 168L9 168L14 168L46 168L165 168L164.222 167.278L163.694 167.25L162.889 167.056L161.972 167.028L161 167L159 167L158 167L156 167L151 167L119 167L74 167L73 167L62 167L0 167z"/>
<path style="fill:#87ce8b; stroke:none;" d="M0 168L0 178L0 182L0 183L0 186L0 202L0 206L0 214L0 218L0 226L0 242L0 247L0 263L0 271L0 281L0 287L0 288L0 291L0 295L0 296L0 298L0 299L0 305L0 321L0 326L0 328L0 332L167 332L167 330.5L167 320L167 288L167 286L167 284L167 281L167 273L167 271L167 263L167 258L167 251L167 250L167 246L167 242L167 236L167 234L167 230L167 210L167 209L167 205L167 200L167 184L167 179L167 178L167 177L167 173L167 172L167 167L165.5 167.25L163.944 167.611L162 167.917L161 167.972L159 168L158 168L155 168L154 168L144 168L141 168L138 168L133 168L110 168L106 168L94 168L93 168L86 168L74 168L69 168L0 168z"/>
<path style="fill:#7f91ed; stroke:none;" d="M834 167L834 175L834 179L834 182L834 190L834 194L834 202L834 206L834 214L834 215L834 217L834 219L834 220L834 221L834 229L834 245L834 246L834 252L834 253L834 257L834 265L834 270L834 278L834 283L834 291L834 292L834 293L834 309L834 313L834 317L834 333L835 334L838.056 334L839 334L842 334L850 334L854 334L857 334L859 334L860 334L862 334L863 334L864 334L869 334L872 334L876 334L881 334L889 334L894 334L897 334L899 334L900 334L901 334L902 334L906 334L907 334L909 334L917 334L918 334L920 334L921 334L927 334L931 334L936 334L940 334L941 334L945 334L946 334L950 334L954 334L959 334L960 334L961 334L969 334L970 334L974 334L979 334L983 334L985 334L986 334L987 334L992 334L1000 334L1000 330L1000 327L1000 323L1000 320L1000 312L1000 311L1000 306L1000 300L1000 292L1000 287L1000 280L1000 275L1000 272L1000 268L1000 264L1000 259L1000 255L1000 253L1000 246L1000 242L1000 241L1000 233L1000 232L1000 229L1000 225L1000 224L1000 220L1000 218L1000 215L1000 183L1000 167L992 167L988 167L986 167L985 167L979 167L978 167L974 167L969 167L965 167L962 167L958 167L955 167L953 167L950 167L941 167L940 167L936 167L934 167L930 167L928 167L927 167L925 167L922 167L920 167L918 167L917 167L912 167L911 167L909 167L907 167L906 167L902 167L901 167L895 167L894 167L890 167L885 167L884 167L882 167L878 167L876 167L853 167L845 167L840 167L834 167z"/>
<path style="fill:#80db72; stroke:none;" d="M0 332L0.777778 332.722L1.30556 332.75L2.11111 332.944L3.02778 332.972L4 333L6 333L7 333L9 333L14 333L47 333L167 333L166.222 332.278L165.694 332.25L164.889 332.056L163.972 332.028L163 332L161 332L160 332L158 332L153 332L120 332L118 332L0 332z"/>
<path style="fill:#bdbdbd; stroke:none;" d="M801.667 332.333L802 332.667L802.333 332.667L802 332.333L801.667 332.333z"/>
<path style="fill:#b4a390; stroke:none;" d="M803.667 332.333L804 332.667L804.333 332.667L804 332.333L803.667 332.333z"/>
<path style="fill:#a98f6f; stroke:none;" d="M647 353L647.083 354.5L647.222 355.056L647.417 356.056L648 358L648.667 360L649.028 361L649.389 362L649.806 363L650.611 365L651.333 367L651.667 368L652.028 369L652.389 370L652.806 371L653.611 373L654.389 375L655.194 377L655.611 378L656.333 380L656.667 381L657.028 382L657.389 383L658.25 385L658.75 386L659.167 387L659.611 388L659.972 389L660.667 391L661.333 393L661.667 394L662.028 395L662.389 396L662.806 397L663.611 399L664.389 401L664.806 402L665.611 404L666.389 406L667.194 408L667.611 409L668.333 411L668.667 412L669.028 413L669.389 414L669.806 415L670.611 417L671.389 419L671.806 420L672.611 422L673.389 424L674.194 426L674.611 427L675.333 429L675.667 430L676.389 432L676.806 433L677.556 435L678.167 437L678.444 438L678.861 439L679.25 440L679.75 441L680.611 443L680.972 444L681.333 445L681.667 446L682.389 448L682.806 449L683.611 451L684.389 453L685.194 455L685.611 456L686.389 458L686.806 459L687.611 461L688.389 463L689.194 465L689.611 466L690.333 468L690.667 469L691.028 470L691.389 471L692.25 473L692.75 474L693.611 476L694.389 478L695.194 480L695.611 481L696.333 483L696.667 484L697.028 485L697.389 486L697.806 487L698.611 489L699.389 491L700.194 493L700.611 494L700.972 495L701.667 497L702.028 498L702.389 499L702.806 500L703.194 501L703.972 503L704.611 505L704.861 506L705.167 506.972L705.417 507.889L705.861 508.694L706.028 509.222L707 510L706 511L706 513L707.5 514.139L709.056 514.722L711 514.889L713 514.611L714 514.389L716 514L718 513.583L719 513.306L721 512.667L723 512L724 511.694L725 511.417L727 511.083L729 510.917L731 510.611L732 510.389L734 510.056L735 509.944L737 509.611L738 509.389L739 509.194L741 508.806L742 508.611L743 508.389L745 508.083L747 507.917L749 507.611L751 507.222L752 507.083L754 506.917L756 506.611L757 506.389L759 506.083L760 506.028L761 506L763 506L765 505.972L766 505.917L768 505.611L769 505.389L771 505.056L772 504.944L774 504.611L775 504.389L777 504.083L778 504.028L780 504L781 504L783 504L785 503.917L787 503.611L788 503.389L790 503.083L791 503.028L793 503L794 503L797 503L798 503L800 502.972L801 502.917L803 502.611L804 502.389L806 502.083L807 502.028L809 502L810 502L812 502L820 502L821 502L823 502L824 502L825 502L827 501.917L829 501.639L830 501.472L830.944 501.444L831.944 501.5L834 502L834 472L834 469L834 465L834 454L834 445L834 436L834 426L834 424L834 422L834 417L834 414L834 350L834 342L834 340L834 332L832.5 332L830.944 332L826 332L823 332L817 332L811 332L810 332L808 332.028L807 332.083L805 332.389L804 332.611L802 332.917L800 333L799 333L796 333L788 333L786 333L784 333.028L783 333.083L781 333.389L780 333.611L778 333.944L777 334.056L775 334.389L774 334.611L772 334.917L771 334.972L770 335L768 335L765 335L763 335L761 335.028L760 335.083L758 335.389L757 335.611L755 335.917L754 335.972L752 336L750 336.028L749 336.083L747 336.389L746 336.611L744 336.917L743 336.972L741 337L739 337.028L738 337.083L736 337.389L735 337.611L733 337.917L732 337.972L730 338L729 338.028L728 338.083L726 338.389L725 338.611L723 338.944L722 339.056L720 339.389L719 339.611L717 339.917L716 339.972L714 340.028L712 340.222L710 340.611L709 340.778L708 340.944L707 341.056L705 341.389L704 341.611L703 341.806L701 342.194L700 342.389L699 342.611L698 342.806L696 343.194L694 343.611L692 343.917L690 344.083L688 344.389L686 344.806L684 345.194L683 345.389L682 345.611L681 345.806L679 346.194L678 346.389L677 346.611L676 346.806L674 347.194L673 347.389L671 347.806L669 348.194L668 348.389L666 348.861L665 349.139L664 349.361L663 349.639L661 350.139L660 350.361L659 350.639L658 350.861L657 351.139L655 351.611L654 351.806L652 352.194L651 352.389L649.056 352.778L648.5 352.917L647 353z"/>
<path style="fill:#b4a390; stroke:none;" d="M0 333L0.777778 333.722L1.30556 333.75L2.11111 333.944L3.02778 333.972L4 334L6 334L7 334L9 334L14 334L46 334L49 334L166 334L165.222 333.278L164.694 333.25L163.889 333.056L162.972 333.028L162 333L160 333L159 333L157 333L152 333L120 333L0 333z"/>
<path style="fill:#bdbdbd; stroke:none;" d="M166 333L167 334L166 333z"/>
<path style="fill:#b4a390; stroke:none;" d="M834 333L835 334L834 333z"/>
<path style="fill:#e888a8; stroke:none;" d="M0 334L0 338L0 343L0 352L0 353L0 369L0 398L0 427L0 459L0 460L0 461L0 462L0 471L0 483L0 500L167 500L167 498.5L167 449L167 424L167 423L167 410L167 406L167 401L167 389L167 388L167 341L167 338L167 334L163.944 334L134 334L130 334L129 334L121 334L113 334L109 334L107 334L91 334L0 334z"/>
<path style="fill:#b4a390; stroke:none;" d="M766 334L766.778 334.722L767.306 334.75L768.111 334.944L769.028 334.972L771 335L771.944 335L775 335L774.222 334.278L773.694 334.25L772.889 334.056L771.972 334.028L770 334L769.056 334L766 334z"/>
<path style="fill:#80db72; stroke:none;" d="M834 334L834 353L834 355L834 356L834 381L834 387L834 390L834 395L834 398L834 404L834 406L834 440L834 442L834 443L834 445L834 500L850 500L858 500L863 500L870 500L872 500L873 500L879 500L882 500L886 500L887 500L888 500L920 500L928 500L930 500L932 500L933 500L940 500L948 500L952 500L960 500L963 500L969 500L972 500L977 500L980 500L988 500L996 500L1000 500L1000 494L1000 491L1000 486L1000 484L1000 480L1000 474L1000 463L1000 423L1000 419L1000 408L1000 397L1000 393L1000 389L1000 384L1000 374L1000 370L1000 366L1000 361L1000 356L1000 349L1000 344L1000 340L1000 334L996.944 334L996 334L995 334L992 334L988 334L986 334L982 334L979 334L973 334L971 334L970 334L842 334L834 334z"/>
<path style="fill:#bdbdbd; stroke:none;" d="M753 335L754 336L753 335z"/>
<path style="fill:#b4a390; stroke:none;" d="M754 335L754.778 335.722L755.25 335.75L756.056 335.944L758 336L757.222 335.278L756.75 335.25L755.944 335.056L754 335M743 336L743.778 336.722L744.25 336.75L745.056 336.944L747 337L746.222 336.278L745.75 336.25L744.944 336.056L743 336M734.667 337.333L735 337.667L735.333 337.667L735 337.333L734.667 337.333z"/>
<path style="fill:#bdbdbd; stroke:none;" d="M725 338L726 339L725 338z"/>
<path style="fill:#b4a390; stroke:none;" d="M718.667 339.333L719 339.667L719.333 339.667L719 339.333L718.667 339.333z"/>
<path style="fill:#bdbdbd; stroke:none;" d="M710 340L711 341L710 340M704 341L705 342L704 341z"/>
<path style="fill:#b4a390; stroke:none;" d="M699 342L700 343L699 342M693.667 343.333L694 343.667L694.333 343.667L694 343.333L693.667 343.333z"/>
<path style="fill:#bdbdbd; stroke:none;" d="M687 344L688 345L687 344M681 345L682 346L681 345z"/>
<path style="fill:#b4a390; stroke:none;" d="M682 345L683 346L682 345z"/>
<path style="fill:#bdbdbd; stroke:none;" d="M676 346L677 347L676 346z"/>
<path style="fill:#b4a390; stroke:none;" d="M677 346L678 347L677 346M672 347L673 348L672 347M659 350L660 351L659 350M655 351L656 352L655 351M458 457L459.417 457.361L459.833 457.722L460.667 458.333L461.389 459.111L463.083 461L464.028 462L466 464L467 465L469 467L493 491L518 516L552 550L553 551L558 556L560 558L560.972 559L561.917 560L563.611 562L564.389 563L566.083 565L567.028 566L569 568L571 570L574 573L575 574L577 576L577.972 577L578.917 578L580.583 580L581.278 580.944L581.917 581.944L582.306 582.5L583 584L584.5 583.222L585.056 582.694L586.056 581.889L588 580L589 579L591 577.028L592 576.083L594 574.389L595 573.611L597 571.944L598 571.056L600 569.389L601 568.611L602 567.806L604 566.194L605 565.389L606 564.611L608 563L610 561.417L612 560L613 559.306L614 558.611L616 557.139L617 556.389L619 555L620 554.333L622 553.028L623 552.389L625 551.25L626 550.778L627 550.222L628 549.75L629 549.167L630 548.611L632 547.389L634 546.25L635 545.778L637 544.75L639 543.611L641 542.389L643 541.25L644 540.75L646 539.611L648 538.389L649 537.833L650 537.25L652 536.222L653 535.778L654 535.222L655 534.778L656 534.25L658 533.389L660 532.611L662 531.75L663 531.25L665 530.389L667 529.611L669 528.806L670 528.389L672 527.611L674 526.806L675 526.389L676 526.028L677 525.667L678 525.333L680 524.667L681 524.333L683 523.611L685 522.833L686 522.444L687 522.167L689 521.611L691 521L693 520.333L696 519.333L697 519L699 518.389L700 518.139L702 517.611L703 517.306L705 516.694L705.944 516.417L706.944 516.222L707.5 516.083L709 516L708.278 514.611L707.75 514.25L706 513L707 511L707 510L706.028 508.5L705.861 507.944L705.417 506.944L705.167 506L704.861 505L704.611 504L703.972 502L703.194 500L702.806 499L702.389 498L701.667 496L701.333 495L700.611 493L700.194 492L699.389 490L698.611 488L697.806 486L697.389 485L696.667 483L696.333 482L695.972 481L695.611 480L695.194 479L694.389 477L693.611 475L692.75 473L692.25 472L691.389 470L691.028 469L690.667 468L690.333 467L689.611 465L689.194 464L688.389 462L687.611 460L686.806 458L686.389 457L685.611 455L684.806 453L684.389 452L683.611 450L682.806 448L682.389 447L681.667 445L681.333 444L680.972 443L680.611 442L679.75 440L679.25 439L678.861 438L678.444 437L678.167 436L677.556 434L676.806 432L676.389 431L675.667 429L675.333 428L674.611 426L674.194 425L673.389 423L672.611 421L671.806 419L671.389 418L670.611 416L669.806 414L669.389 413L669.028 412L668.667 411L668.333 410L667.611 408L667.194 407L666.389 405L665.611 403L664.806 401L664.389 400L663.611 398L662.806 396L662.389 395L662.028 394L661.667 393L661.333 392L660.667 390L659.972 388L659.611 387L659.167 386L658.75 385L658.25 384L657.389 382L657.028 381L656.667 380L656.333 379L655.611 377L655.194 376L654.389 374L653.611 372L652.806 370L652.389 369L651.667 367L651.333 366L650.972 365L650.611 364L649.806 362L649.389 361L648.667 359L648.333 358L648 357.056L647.667 356.056L647.444 355.5L647 354L645.5 354.083L644.944 354.222L643.944 354.389L642 354.861L641 355.139L640 355.361L639 355.639L638 355.861L636 356.389L635 356.694L633 357.306L632 357.611L630 358.139L629 358.389L627 359L626 359.333L623 360.333L617 362.333L616 362.667L608 365.333L605 366.333L604 366.667L602 367.389L601 367.806L599 368.611L598 368.972L597 369.333L596 369.667L594 370.333L592 371.028L591 371.389L589 372.25L588 372.75L586 373.611L584 374.389L582 375.194L581 375.611L579 376.389L577 377.25L576 377.75L574 378.611L572 379.389L570 380.25L569 380.75L567 381.611L566 381.972L564 382.667L562 383.389L561 383.833L560 384.25L559 384.778L557 385.778L556 386.25L555 386.833L554 387.389L552 388.611L551 389.194L549 390.389L547 391.611L546 392.167L545 392.75L544 393.222L543 393.778L542 394.222L540 395.25L539 395.833L538 396.389L536 397.611L535 398.194L533 399.389L531 400.611L529 401.75L528 402.25L526 403.389L524 404.611L522 405.806L521 406.389L520 407.028L518 408.333L517 409L514 411L510 413.667L508 415L506 416.389L505 417.139L503 418.611L502 419.306L500 420.694L499 421.389L497 422.861L496 423.639L495 424.361L494 425.139L493 425.861L491 427.389L490 428.194L488 429.806L486 431.389L484 433.056L482 434.778L480 436.389L478 438.083L476 439.917L475 440.778L473 442.389L472 443.222L471 444.083L469 446L467 448L465 449.972L464 450.917L462 452.611L460.111 454.167L459.306 455.028L458.778 455.528L458 457z"/>
<path style="fill:#bdbdbd; stroke:none;" d="M531 400L532 401L531 400M462 452L463 453L462 452z"/>
<path style="fill:#a98f6f; stroke:none;" d="M356 640L357.5 641.222L359.056 642.194L360 642.722L362 643.611L364 644.333L365 644.667L367 645.333L369 646.028L370 646.389L372 647.25L373 647.75L375 648.611L377 649.389L379 650.194L380 650.611L382 651.389L383 651.806L385 652.611L387 653.389L388 653.806L390 654.611L392 655.389L394 656.25L395 656.75L397 657.611L399 658.389L401 659.194L402 659.611L404 660.389L405 660.833L406 661.25L407 661.778L408 662.222L409 662.778L411 663.75L412 664.167L413 664.611L415 665.389L416 665.806L418 666.611L420 667.389L422 668.194L423 668.611L425 669.389L427 670.194L428 670.611L430 671.389L431 671.806L433 672.611L435 673.389L436 673.806L438 674.611L440 675.389L442 676.194L443 676.611L444 676.972L445 677.333L447 678.083L449 679L450 679.472L451 679.944L453 680.833L454 681.25L455 681.75L457 682.611L459 683.389L461 684.194L462 684.611L464 685.389L465 685.806L467 686.611L469 687.389L470 687.806L472 688.611L474 689.389L476 690.25L477 690.75L479 691.611L481 692.389L483 693.194L484 693.611L486 694.389L488 695.194L489 695.611L491 696.389L493 697.194L494 697.611L496 698.389L497 698.806L499 699.611L501 700.389L503 701.194L504 701.611L506 702.389L507 702.833L508 703.25L509 703.778L510 704.222L511 704.75L511.944 705.139L513.5 705.722L515 706L515.806 704.5L515.972 703.944L516.333 702.944L516.861 701L517.139 700L517.389 699L518 697L518.333 696L519.333 693L522.333 684L524 679L524.667 677L525.028 676L525.389 675L526.25 673L526.75 672L527.611 670L528.389 668L529.25 666L529.75 665L530.611 663L531.389 661L532.194 659L532.611 658L533.389 656L533.833 655L534.25 654L535.222 652L535.778 651L536.222 650L536.778 649L537.778 647L538.25 646L538.833 645L539.389 644L540.611 642L541.167 641L541.75 640L542.222 639L542.778 638L543.222 637L543.778 636L544.25 635L545.389 633L546.028 632L547.333 630L548.611 628L549.194 627L550.444 625L551.167 624L551.861 623L553.361 621L554.139 620L555.611 618L556.306 617L557.694 615L558.389 614L559.861 612L560.639 611L561.361 610L562.139 609L562.861 608L564.389 606L565.194 605L566.806 603L568.389 601L569.222 600L570.083 599L571.917 597L572.778 596L574.389 594L576.083 592L577.028 591L578 590L579 589L580.889 587L582.25 585L582.556 584L582.583 583L582.333 582L581.278 580L580.583 579L578.917 577L577 575L576 574L574 572L571 569L569 567L567.028 565L566.083 564L564.389 562L563.611 561L561.917 559L560.972 558L560 557L558 555L551 548L549 546L547 544L542 539L532 529L530 527L519 516L491 488L472 469L468 465L466 463L464.028 461L463.111 460.056L462.306 459.056L461.778 458.5L461 457L458.944 457.111L457.944 457.333L456.083 458.333L455.222 459.083L454.417 459.944L453 461.583L452.306 462.306L451.583 463L449.944 464.417L449.056 465.222L447.389 467.028L446.611 468L444.917 470L443.972 471L442.083 473L441.222 474L439.611 476L438.806 477L437.194 479L436.389 480L434.861 482L434.139 483L432.611 485L431.806 486L430.194 488L428.611 490L427.806 491L426.194 493L425.389 494L424.639 495L423.139 497L422.389 498L421.694 499L420.306 501L419.611 502L418.861 503L417.389 505L416.694 506L416 507L414.667 509L413.389 511L412.806 512L411.611 514L410.333 516L409.667 517L408.333 519L407.667 520L407.028 521L406.389 522L405.806 523L404.611 525L403.389 527L402.194 529L401.611 530L400.389 532L399.194 534L398.611 535L397.389 537L396.833 538L396.25 539L395.222 541L394.778 542L394.222 543L393.75 544L393.167 545L392.611 546L391.389 548L390.833 549L390.278 550L389.833 551L389.389 552L388.611 554L388.167 555L387.75 556L387.222 557L386.222 559L385.778 560L385.222 561L384.778 562L384.222 563L383.25 565L382.833 566L382.389 567L381.611 569L381.167 570L380.75 571L380.222 572L379.778 573L379.222 574L378.25 576L377.389 578L376.611 580L375.75 582L375.25 583L374.389 585L373.611 587L372.806 589L372.389 590L372.028 591L371.667 592L371.333 593L370.611 595L369.806 597L369.389 598L368.667 600L368.333 601L367.667 603L367.333 604L366.611 606L365.806 608L365.389 609L365.028 610L364.667 611L364.333 612L363.667 614L363.333 615L362.611 617L361.833 619L361.444 620L361.167 621L360.611 623L360 625L359.667 626L359 628L358.694 629L358.389 630L357.861 632L357.639 633L357.361 634L357.139 635L356.861 636L356.639 636.944L356.25 638.5L356 640z"/>
<path style="fill:#b4a390; stroke:none;" d="M453 461L454 462L453 461M451 463L452 464L451 463M446 468L444.056 470L443.25 471L442.778 471.5L442 473L443.5 472.222L444.028 471.694L445.611 470.083L446.028 469.306L446.361 468.778L446 468M439 476L440 477L439 476z"/>
<path style="fill:#bdbdbd; stroke:none;" d="M435 481L436 482L435 481z"/>
<path style="fill:#b4a390; stroke:none;" d="M432 485L433 486L432 485z"/>
<path style="fill:#bdbdbd; stroke:none;" d="M431 486L432 487L431 486z"/>
<path style="fill:#b4a390; stroke:none;" d="M428 490L427 492L428.083 491L428.417 490.667L428 490M424 495L425 496L424 495M421 499L422 500L421 499M0 500L0.777778 500.722L1.30556 500.75L2.11111 500.944L3.02778 500.972L4 501L6 501L7 501L9 501L14 501L46 501L166 501L165.222 500.278L164.694 500.25L163.889 500.056L162.972 500.028L162 500L160 500L159 500L157 500L152 500L120 500L0 500z"/>
<path style="fill:#bdbdbd; stroke:none;" d="M166 500L167 501L166 500z"/>
<path style="fill:#b4a390; stroke:none;" d="M834 500L835 501L834 500z"/>
<path style="fill:#bdbdbd; stroke:none;" d="M835 500L835.778 500.722L836.306 500.75L837.111 500.944L838.028 500.972L839 501L841 501L842 501L844 501L849 501L881 501L886 501L894 501L926 501L927 501L931 501L933 501L935 501L938 501L940 501L941 501L943 501L951 501L959 501L962 501L965 501L967 501L968 501L972 501L973 501L977 501L979 501L984 501L992 501L1000 501L999.222 500.278L998.694 500.25L997.889 500.056L996.972 500.028L996 500L994 500L993 500L991 500L987 500L986 500L954 500L949 500L944 500L942 500L938 500L934 500L932 500L929 500L921 500L920 500L916 500L910 500L906 500L904 500L900 500L899 500L835 500z"/>
<path style="fill:#dadc55; stroke:none;" d="M0 501L0 667L167 667L167 645L167 501L0 501z"/>
<path style="fill:#b4a390; stroke:none;" d="M829 501L829.778 501.722L830.25 501.75L831.056 501.944L833 502L832.222 501.278L831.75 501.25L830.944 501.056L829 501z"/>
<path style="fill:#ad83ea; stroke:none;" d="M834 501L834.583 503.056L834.778 504.056L834.917 505L835 507L835 508L835 509L835 512L835 521L835 524L835 555L835 666L838.056 666L839 666L842 666L847 666L855 666L857 666L864 666L867 666L869 666L874 666L878 666L892 666L908 666L913 666L915 666L923 666L927 666L934 666L938 666L939 666L941 666L944 666L949 666L957 666L959 666L960 666L961 666L962 666L966 666L967 666L972 666L980 666L984 666L986 666L989 666L991 666L992 666L996 666L1000 666L1000 659L1000 649L1000 643L1000 627L1000 626L1000 625L1000 585L1000 582L1000 502L994 502L990 502L988 502L987 502L985 502L977 502L972 502L970 502L969 502L961 502L958 502L952 502L951 502L949 502L948 502L947 502L943 502L942 502L938 502L934 502L932 502L929 502L926 502L922 502L914 502L909 502L908 502L906 502L901 502L893 502L890 502L888 502L872 502L868 502L866 502L865 502L860 502L857 502L855 502L854 502L851 502L847 502L845 502L842 502L841 502L840 502L838 501.917L837.056 501.778L836.056 501.583L834 501z"/>
<path style="fill:#d387e4; stroke:none;" d="M835 501L835.778 501.722L836.306 501.75L837.111 501.944L838.028 501.972L839 502L841 502L842 502L844 502L849 502L881 502L884 502L887 502L892 502L893 502L901 502L905 502L907 502L911 502L912 502L920 502L924 502L930 502L938 502L939 502L941 502L944 502L960 502L964 502L966 502L969 502L971 502L976 502L978 502L982 502L986 502L987 502L995 502L1000 502L999.222 501.278L998.694 501.25L997.889 501.056L996.972 501.028L996 501L994 501L993 501L991 501L987 501L986 501L954 501L949 501L947 501L945 501L942 501L938 501L934 501L928 501L926 501L923 501L915 501L899 501L835 501z"/>
<path style="fill:#b4a390; stroke:none;" d="M419 502L420 503L419 502z"/>
<path style="fill:#bdbdbd; stroke:none;" d="M803.667 502.333L803.667 502.667L804.333 502.667L804.333 502.333L803.667 502.333z"/>
<path style="fill:#d387e4; stroke:none;" d="M834 502L834 506L834 510L834 511L834 528L834 667L850 667L858 667L863 667L870 667L872 667L873 667L878 667L880 667L888 667L892 667L898 667L903 667L905 667L906 667L911 667L912 667L922 667L926 667L927 667L929 667L937 667L943 667L944 667L960 667L963 667L967 667L971 667L976 667L978 667L982 667L986 667L987 667L995 667L1000 667L999.222 666.278L998.694 666.25L997.889 666.056L996.972 666.028L996 666L994 666L993 666L991 666L987 666L986 666L954 666L950 666L949 666L945 666L942 666L938 666L936 666L934 666L933 666L925 666L921 666L915 666L899 666L891 666L887 666L882 666L881 666L877 666L876 666L872 666L870 666L868 666L867 666L865 666L857 666L853 666L851 666L835 666L835 659L835 548L835 516L835 511L835 509L835 508L835 506L834.972 505.028L834.944 504.111L834.75 503.306L834.722 502.778L834 502z"/>
<path style="fill:#b4a390; stroke:none;" d="M787 503L788 504L787 503z"/>
<path style="fill:#bdbdbd; stroke:none;" d="M788 503L789 504L788 503z"/>
<path style="fill:#b4a390; stroke:none;" d="M774 504L774.778 504.722L775.25 504.75L776.056 504.944L778 505L777.222 504.278L776.75 504.25L775.944 504.056L774 504z"/>
<path style="fill:#bdbdbd; stroke:none;" d="M778 504L779 505L778 504z"/>
<path style="fill:#b4a390; stroke:none;" d="M768 505L769 506L768 505z"/>
<path style="fill:#bdbdbd; stroke:none;" d="M769 505L770 506L769 505z"/>
<path style="fill:#b4a390; stroke:none;" d="M756 506L756.778 506.722L757.25 506.75L758.056 506.944L760 507L759.222 506.278L758.75 506.25L757.944 506.056L756 506z"/>
<path style="fill:#bdbdbd; stroke:none;" d="M760 506L760.722 506.722L761.25 506.75L763 507L762.278 506.278L761.75 506.25L760 506z"/>
<path style="fill:#b4a390; stroke:none;" d="M749 507L750 508L749 507z"/>
<path style="fill:#bdbdbd; stroke:none;" d="M750 507L751 508L750 507z"/>
<path style="fill:#b4a390; stroke:none;" d="M742 508L743 509L742 508z"/>
<path style="fill:#bdbdbd; stroke:none;" d="M743.667 508.333L743.667 508.667L744.333 508.667L744 508.333L743.667 508.333z"/>
<path style="fill:#b4a390; stroke:none;" d="M414 509L415 510L414 509M737 509L738 510L737 509M731 510L732 511L731 510M724 511L724.722 511.722L725.25 511.75L727 512L726.278 511.278L725.75 511.25L724 511M412 512L413 513L412 512M721 512L722 513L721 512M411 514L410 516L411.083 515L411.417 514.667L411 514M713 514L714 515L713 514z"/>
<path style="fill:#bdbdbd; stroke:none;" d="M714 514L715 515L714 514z"/>
<path style="fill:#b4a390; stroke:none;" d="M409 517L410 518L409 517M407 520L408 521L407 520M405 523L406 524L405 523M404 525L405 526L404 525M402 528L403 529L402 528M401 530L402 531L401 530M399 533L400 534L399 533M398 535L399 536L398 535M395 540L396 541L395 540M394 542L395 543L394 542M393 544L394 545L393 544M392 546L393 547L392 546M388 554L389 555L388 554M387 556L388 557L387 556M386 558L387 559L386 558M385 560L386 561L385 560M384 562L385 563L384 562M383 564L384 565L383 564M382 566L383 567L382 566M381.333 568.667L381.333 569.333L381.667 569.333L381.667 568.667L381.333 568.667z"/>
<path style="fill:#bdbdbd; stroke:none;" d="M380 570L381 571L380 570z"/>
<path style="fill:#b4a390; stroke:none;" d="M380 571L381 572L380 571M379 573L380 574L379 573M378 575L379 576L378 575M377 577L378 578L377 577M376 580L377 581L376 580M375 582L376 583L375 582M374 584L375 585L374 584M373 587L374 588L373 587M372 589L373 590L372 589z"/>
<path style="fill:#bdbdbd; stroke:none;" d="M576 591L575 593L576.083 592L576.417 591.667L576 591z"/>
<path style="fill:#b4a390; stroke:none;" d="M371 592L372 593L371 592M574 593L575 594L574 593M370 595L371 596L370 595M369 597L370 598L369 597M368 600L369 601L368 600M367 603L368 604L367 603z"/>
<path style="fill:#bdbdbd; stroke:none;" d="M564 605L565 606L564 605z"/>
<path style="fill:#b4a390; stroke:none;" d="M366 606L367 607L366 606M365 608L366 609L365 608z"/>
<path style="fill:#bdbdbd; stroke:none;" d="M561 609L562 610L561 609z"/>
<path style="fill:#b4a390; stroke:none;" d="M364 611L365 612L364 611z"/>
<path style="fill:#bdbdbd; stroke:none;" d="M559 612L560 613L559 612z"/>
<path style="fill:#b4a390; stroke:none;" d="M558 613L559 614L558 613M363 614L364 615L363 614z"/>
<path style="fill:#bdbdbd; stroke:none;" d="M556 616L557 617L556 616z"/>
<path style="fill:#b4a390; stroke:none;" d="M362 617L363 618L362 617M553 620L554 621L553 620M360 623L361 624L360 623M551 623L550 625L551.083 624L551.417 623.667L551 623M549 626L550 627L549 626M547 629L548 630L547 629M546 631L545 633L546.083 632L546.417 631.667L546 631M357 633L358 634L357 633M544 634L545 635L544 634M543 636L544 637L543 636M356 637L357 638L356 637M542 638L543 639L542 638M355 640L354.917 641.5L354.778 642.056L354.611 643.056L354.139 645L353.861 646L353.639 647L353.361 648L353.139 649L352.639 651L352.361 652L352.139 653L351.861 654L351.639 655L351.139 657L350.861 658L350.389 660L350.194 661L349.806 663L349.611 664L349.139 666L348.861 667L348.361 669L348.139 670L347.861 671L347.389 673L347.194 674L346.806 676L346.611 677L346.389 678L346.194 679L345.806 681L345.611 682L345.389 683L345.194 684L344.806 686L344.611 687L344.389 688L344.056 690L343.944 691L343.611 693L343.389 694L343.056 696L342.778 698L342.389 700L342.222 701L341.944 703L341.611 705L341.222 707L341.083 708L340.917 710L340.778 711L340.389 713L340.083 715L339.917 717L339.778 718L339.389 720L339.222 721L339.083 722L338.917 724L338.778 725L338.389 727L338.083 729L338.028 730L337.972 732L337.917 733L337.611 735L337.389 736L337.083 738L337.028 739L336.972 741L336.778 743L336.389 745L336.083 747L336.028 748L336 750L335.972 751L335.917 752L335.611 754L335.389 755L335.083 757L335 759L335 761L335 762L334.972 764L334.917 765L334.611 767L334.389 768L334.083 770L334.028 771L334 773L334 775L334 776L333.972 778L333.917 779L333.611 781L333.389 782L333.083 784L333.028 785L333 787L333 790L333 799L333 802L333 803L332.917 805L332.778 806L332.389 808L332.083 810L332.028 811L332 813L332 815L332 818L332 826L332 829L332 830L332.083 832L332.389 834L332.611 835L332.917 837L332.972 838L333 840L333 844L333 855L333 1000L333.722 999.222L333.75 998.694L333.944 997.889L333.972 996.972L334 996L334 994L334 993L334 991L334 986L334 954L334 834L500 834L500 825L500 823L500.028 821L500.083 820L500.389 818L500.611 817L500.917 815L500.972 814L501 812L501 810L501 803L501 801L501.028 799L501.083 798L501.389 796L501.611 795L501.917 793L501.972 792L502 790L502 789L502 787L502.083 785L502.389 783L502.611 782L502.917 780L502.972 779L503 778L503.028 776L503.083 775L503.389 773L503.611 772L503.917 770L503.972 769L504.028 767L504.083 766L504.389 764L504.778 762L504.917 761L505.083 759L505.222 758L505.389 757L505.778 755L505.917 754L506.083 752L506.389 750L506.778 748L507.056 746L507.389 744L507.611 743L507.806 742L508.194 740L508.389 739L508.611 738L508.944 736L509.056 735L509.389 733L509.806 731L510.194 729L510.389 728L510.639 727L510.861 726L511.139 725L511.611 723L511.806 722L512.194 720L512.389 719L512.861 717L513.139 716L513.361 715L513.639 714L513.861 713L514.389 711L515 709L515.306 708.056L515.583 707.056L515.75 706.5L516 705L513.944 705.111L512 704.667L510 703.778L509 703.25L508 702.833L507 702.389L505 701.611L504 701.194L502 700.389L500 699.611L498 698.806L497 698.389L495 697.611L494 697.194L492 696.389L490 695.611L489 695.194L487 694.389L485 693.611L484 693.194L482 692.389L480 691.611L478 690.75L477 690.25L475 689.389L473 688.611L471 687.806L470 687.389L468 686.611L466 685.806L465 685.389L463 684.611L462 684.194L460 683.389L458 682.611L456 681.75L455 681.25L453 680.361L452 679.944L450 679L448 678.083L446 677.333L445 676.972L444 676.611L443 676.194L441 675.389L439 674.611L437 673.806L436 673.389L434 672.611L432 671.806L431 671.389L429 670.611L428 670.194L426 669.389L424 668.611L423 668.194L421 667.389L419 666.611L417 665.806L416 665.389L414 664.611L413 664.167L412 663.75L410 662.778L409 662.222L408 661.778L407 661.25L406 660.833L405 660.389L403 659.611L402 659.194L400 658.389L398 657.611L396 656.75L395 656.25L393 655.389L391 654.611L389 653.806L388 653.389L386 652.611L384 651.806L383 651.389L381 650.611L380 650.194L378 649.389L376 648.611L374 647.75L373 647.25L371 646.389L370 646.028L368 645.333L366 644.667L365 644.333L364 643.972L363 643.611L361 642.722L359 641.639L358.056 641.083L357.056 640.639L356.5 640.333L355 640M539 643L540 644L539 643M538 645L539 646L538 645M537 647L538 648L537 647M536 649L537 650L536 649M535 651L536 652L535 651M534 653L535 654L534 653M533 655L534 656L533 655M532 658L533 659L532 658M531 660L532 661L531 660M529 665L530 666L529 665M0 667L0.777778 667.722L1.30556 667.75L2.11111 667.944L3.02778 667.972L4 668L6 668L7 668L9 668L14 668L46 668L166 668L165.222 667.278L164.694 667.25L163.889 667.056L162.972 667.028L162 667L160 667L159 667L157 667L152 667L120 667L0 667z"/>
<path style="fill:#bdbdbd; stroke:none;" d="M166 667L167 668L166 667z"/>
<path style="fill:#b4a390; stroke:none;" d="M528 667L529 668L528 667M834 667L834 679L834 694L834 697L834 698L834 727L834 738L834 834L834.722 833.222L834.75 832.694L834.944 831.889L834.972 830.972L835 829L835 827L835 823L835 798L835 706L835 679L835 674L835 672L834.972 670.028L834.944 669.111L834.75 668.306L834.722 667.778L834 667z"/>
<path style="fill:#ad83ea; stroke:none;" d="M835 667L835.778 667.722L836.306 667.75L837.111 667.944L838.028 667.972L839 668L841 668L842 668L844 668L849 668L881 668L883 668L885 668L890 668L898 668L906 668L911 668L927 668L932 668L940 668L945 668L949 668L955 668L963 668L967 668L971 668L972 668L978 668L979 668L983 668L984 668L986 668L989 668L994 668L1000 668L999.222 667.278L998.694 667.25L997.889 667.056L996.972 667.028L996 667L994 667L993 667L991 667L987 667L986 667L954 667L949 667L941 667L936 667L928 667L924 667L923 667L918 667L915 667L913 667L911 667L907 667L906 667L904 667L900 667L899 667L891 667L887 667L882 667L881 667L878 667L874 667L873 667L869 667L865 667L863 667L862 667L857 667L849 667L848 667L843 667L835 667M0 668L0 834L167 834L167 668L0 668z"/>
<path style="fill:#a98f6f; stroke:none;" d="M835 668L835 683L835 689L835 695L835 706L835 834L843 834L847 834L851 834L853 834L857 834L861 834L862 834L864 834L869 834L872 834L876 834L892 834L900 834L905 834L912 834L913 834L918 834L922 834L924 834L926 834L929 834L937 834L938 834L940 834L948 834L952 834L960 834L963 834L969 834L977 834L981 834L982 834L986 834L990 834L994 834L1000 834L1000 828L1000 668L997.944 668L996.944 668L993 668L985 668L977 668L973 668L969 668L968 668L965 668L961 668L959 668L943 668L941 668L938 668L934 668L932 668L931 668L930 668L928 668L927 668L925 668L922 668L920 668L919 668L917 668L912 668L911 668L909 668L893 668L889 668L881 668L872 668L868 668L864 668L862 668L854 668L851 668L847 668L845 668L840 668L839 668L835 668z"/>
<path style="fill:#b4a390; stroke:none;" d="M526 672L527 673L526 672M525.333 674.667L525.333 675L525.667 675.333L525.667 675L525.333 674.667M524 677L525 678L524 677M523 680L524 681L523 680M522 683L523 684L522 683M521 686L522 687L521 686M520 689L521 690L520 689M519 692L520 693L519 692M518 695L519 696L518 695M517 698L518 699L517 698M516 702L517 703L516 702z"/>
<path style="fill:#bdbdbd; stroke:none;" d="M504 763L505 764L504 763z"/>
<path style="fill:#63d5f1; stroke:none;" d="M0 834L0 1000L166 1000L166 834L0 834z"/>
<path style="fill:#bdbdbd; stroke:none;" d="M166 834L167 835L166 834z"/>
<path style="fill:#e888a8; stroke:none;" d="M167 834L167 1000L333 1000L333 834L167 834z"/>
<path style="fill:#7fd31b; stroke:none;" d="M334 834L334 1000L500 1000L500 834L334 834z"/>
<path style="fill:#87ce8b; stroke:none;" d="M500 834L501 835L500 834z"/>
<path style="fill:#7f91ed; stroke:none;" d="M501 834L500 835L500 1000L500.722 999.222L500.75 998.694L500.944 997.889L500.972 996.972L501 996L501 994L501 993L501 991L501 986L501 954L501 835L554 835L555 835L557 835L577 835L578 835L589 835L606 835L607 835L611 835L619 835L639 835L643 835L646 835L654 835L656 835L659 835L662 835L666 835L665.222 834.278L664.694 834.25L663.889 834.056L662.972 834.028L662 834L660 834L659 834L657 834L654 834L652 834L620 834L617 834L613 834L601 834L567 834L562 834L561 834L536 834L501 834z"/>
<path style="fill:#3b79d9; stroke:none;" d="M666 834L664.5 834.722L663.944 834.75L662.944 834.944L662 834.972L661 835L660 835L658 835L655 835L649 835L633 835L625 835L615 835L612 835L606 835L595 835L566 835L546 835L539 835L525 835L501 835L501 1000L550 1000L555 1000L557 1000L562 1000L565 1000L605 1000L627 1000L641 1000L649 1000L650 1000L652 1000L655 1000L659 1000L661 1000L662 1000L667 1000L667 998.5L667 997.944L667 880L667 848L667 843L667 841L667 840L667 838L666.972 837.028L666.944 836.111L666.75 835.306L666.722 834.778L666 834z"/>
<path style="fill:#bdbdbd; stroke:none;" d="M667 834L668 835L667 834z"/>
<path style="fill:#dadc55; stroke:none;" d="M668 834L668.778 834.722L669.306 834.75L670.111 834.944L671.028 834.972L672 835L674 835L675 835L677 835L682 835L714 835L718 835L724 835L740 835L751 835L759 835L764 835L766 835L770 835L771 835L773 835L777 835L781 835L782 835L786 835L791 835L792 835L794 835L795 835L797 835L801 835L805 835L809 835L812 835L816 835L820 835L822 835L829 835L833 835L833 841L833 849L833 855L833 865L833 872L833 1000L833.722 999.222L833.75 998.694L833.944 997.889L833.972 996.972L834 996L834 994L834 993L834 991L834 986L834 954L834 952L834 940L834 933L834 913L834 910L834 834L829 834L824 834L822 834L816 834L815 834L811 834L805 834L797 834L793 834L788 834L780 834L779 834L766 834L758 834L757 834L753 834L752 834L751 834L747 834L744 834L740 834L732 834L729 834L720 834L716 834L710 834L708 834L705 834L701 834L699 834L691 834L677 834L676 834L674 834L671.056 834L668 834z"/>
<path style="fill:#fd8256; stroke:none;" d="M834 834L834 840L834 1000L850 1000L858 1000L863 1000L870 1000L872 1000L873 1000L881 1000L885 1000L890 1000L891 1000L955 1000L963 1000L967 1000L972 1000L980 1000L988 1000L996 1000L1000 1000L1000 994L1000 834L996.944 834L992 834L990 834L988 834L984 834L979 834L975 834L974 834L973 834L971 834L963 834L961 834L960 834L959 834L957 834L952 834L950 834L949 834L945 834L937 834L929 834L926 834L922 834L919 834L915 834L851 834L850 834L834 834z"/>
<path style="fill:#87ce8b; stroke:none;" d="M166 835L166 1000L166.722 999.222L166.75 998.694L166.944 997.889L166.972 996.972L167 995L167 993L167 988L167 962L167 871L167 846L167 842L167 840L166.972 838.028L166.944 837.111L166.75 836.306L166.722 835.778L166 835z"/>
<path style="fill:#b4a390; stroke:none;" d="M667 835L667 841L667 1000L667.722 999.222L667.75 998.694L667.944 997.889L667.972 996.972L668 995L668 993L668 988L668 962L668 871L668 870L668 869L668 846L668 842L668 840L667.972 838.028L667.944 837.111L667.75 836.306L667.722 835.778L667 835z"/>
<path style="fill:#f9bd14; stroke:none;" d="M668 835L668 836.5L668 1000L732 1000L736 1000L738 1000L740 1000L765 1000L768 1000L776 1000L781 1000L787 1000L791 1000L795 1000L797 1000L801 1000L808 1000L812 1000L816 1000L821 1000L822 1000L829 1000L833 1000L833 994L833 986L833 964L833 954L833 909L833 898L833 835L825 835L820 835L817 835L813 835L807 835L791 835L787 835L785 835L784 835L782 835L779 835L774 835L772 835L764 835L759 835L753 835L752 835L751 835L747 835L739 835L735 835L729 835L713 835L709 835L677 835L671.056 835L668 835z"/>
</svg>
